<?xml version="1.0" standalone="no"?>
<!DOCTYPE svg PUBLIC "-//W3C//DTD SVG 20010904//EN"
 "http://www.w3.org/TR/2001/REC-SVG-20010904/DTD/svg10.dtd">
<svg version="1.0" xmlns="http://www.w3.org/2000/svg"
 width="400.000000pt" height="400.000000pt" viewBox="0 0 400.000000 400.000000"
 preserveAspectRatio="xMidYMid meet">
<metadata>
Created by potrace 1.11, written by Peter Selinger 2001-2013
</metadata>
<g transform="translate(0.000000,400.000000) scale(0.100000,-0.100000)"
fill="#000000" stroke="none">
<path d="M0 2730 c0 -698 3 -1270 6 -1270 4 0 59 18 123 41 64 22 143 49 176
60 34 10 79 33 100 51 44 37 102 78 108 78 3 0 23 18 45 40 22 22 49 40 61 40
27 0 27 -8 -4 -31 -13 -11 -22 -26 -19 -34 3 -8 -5 -25 -18 -38 -13 -13 -22
-29 -20 -35 6 -18 -21 -47 -46 -50 -12 -2 -22 2 -22 7 0 36 -107 -38 -169
-117 -39 -49 -61 -64 -61 -43 0 14 34 71 43 71 4 0 7 5 7 10 0 6 -10 10 -23
10 -22 0 -48 -15 -86 -50 -9 -8 -34 -20 -56 -27 -22 -6 -64 -19 -92 -30 l-53
-18 0 -697 0 -698 486 0 486 0 -6 27 c-2 16 -14 82 -26 148 -11 66 -26 145
-32 175 -6 30 -14 80 -18 110 -5 30 -31 168 -60 305 -29 138 -61 295 -71 350
-11 55 -29 138 -39 185 -45 202 -52 255 -47 336 7 112 37 165 51 90 4 -19 11
-36 17 -38 5 -2 27 -53 49 -113 34 -94 47 -117 90 -160 27 -27 71 -76 96 -107
42 -52 84 -84 184 -141 19 -11 55 -36 80 -56 75 -62 168 -101 238 -101 55 0
64 3 121 45 46 34 78 49 133 61 40 9 110 34 155 56 103 49 134 86 157 183 7
29 7 29 -9 10 -9 -11 -14 -15 -11 -9 3 6 -2 23 -10 39 -16 31 -14 98 5 133 14
25 49 29 58 6 5 -12 9 -10 23 11 17 26 40 19 24 -6 -3 -6 -2 -14 4 -18 7 -4 1
-23 -18 -53 -25 -40 -28 -53 -24 -99 4 -37 -6 -124 -31 -274 -25 -151 -41
-289 -51 -440 -13 -214 -39 -527 -50 -612 l-5 -43 676 0 c641 0 677 1 670 17
-4 10 -15 47 -25 83 -10 36 -45 161 -79 279 -67 229 -68 244 -20 287 18 16 19
16 19 0 0 -10 -5 -26 -10 -37 -9 -15 -7 -21 5 -25 10 -4 13 -13 10 -25 -5 -16
-1 -19 27 -19 30 -1 31 -2 15 -14 -13 -10 -15 -16 -5 -23 15 -12 119 -45 192
-63 46 -10 51 -9 89 17 97 66 227 206 227 242 0 9 -9 27 -20 41 l-20 25 5 -40
c4 -26 1 -46 -9 -58 -22 -28 -263 -106 -329 -107 -24 0 -27 3 -22 20 5 14 2
20 -9 20 -9 0 -16 3 -17 8 0 4 -2 30 -4 57 -6 98 -17 155 -30 155 -8 0 -11 8
-8 18 6 23 -13 39 -52 44 -25 2 -31 9 -37 38 -4 19 -13 61 -20 92 -7 32 -16
58 -20 58 -13 0 -9 22 6 39 7 9 16 38 19 66 5 45 4 48 -10 30 -19 -26 -83
-160 -83 -174 0 -6 -4 -11 -10 -11 -10 0 -14 20 -12 53 1 9 -3 17 -8 17 -6 0
-10 -8 -11 -17 0 -11 -3 -13 -6 -5 -8 20 -22 14 -16 -7 4 -15 0 -20 -16 -18
-17 1 -21 7 -19 32 1 30 -7 62 -42 160 -10 28 -21 58 -24 69 -5 15 -9 16 -22
5 -13 -11 -15 -6 -12 39 4 47 2 51 -14 46 -11 -3 -20 1 -24 11 -4 10 -14 15
-25 12 -13 -4 -21 3 -28 25 -7 18 -16 28 -24 25 -7 -2 -23 4 -36 14 -21 17
-20 24 3 20 4 -1 5 14 2 34 -6 29 -4 37 11 42 10 4 36 18 58 31 25 16 40 21
43 13 4 -13 32 -15 32 -2 0 5 -7 14 -15 21 -16 14 -21 50 -6 50 6 0 18 -27 27
-59 19 -61 29 -71 82 -71 13 0 35 9 49 20 38 29 163 60 163 39 0 -5 15 -23 32
-40 18 -17 40 -47 50 -67 14 -30 17 -33 18 -14 0 24 35 32 42 10 7 -19 25 -1
46 45 32 69 34 79 16 98 -9 10 -20 16 -24 14 -9 -5 -30 72 -30 108 0 35 -28
43 -36 12 -3 -14 -4 -31 -1 -39 3 -7 2 -17 -3 -22 -4 -5 -2 -31 6 -59 18 -66
17 -85 -2 -85 -9 0 -14 6 -11 13 6 18 -11 47 -29 47 -16 0 -34 39 -34 75 0 13
-5 25 -12 27 -8 3 -5 16 10 42 26 45 21 60 -19 51 -21 -5 -39 0 -64 15 -28 17
-35 28 -35 54 0 32 0 32 -51 33 -41 1 -56 6 -80 29 l-29 28 -11 -32 c-9 -28
-16 -32 -45 -32 -21 0 -34 -5 -34 -13 0 -17 -73 -38 -109 -31 -25 5 -31 3 -31
-10 0 -10 4 -26 10 -36 7 -13 6 -19 -5 -24 -8 -3 -15 -12 -15 -21 0 -8 -4 -15
-10 -15 -5 0 -10 8 -10 18 0 9 -9 23 -20 30 -40 25 -13 110 30 99 23 -6 25 -4
89 70 66 78 104 89 260 79 101 -6 109 -9 160 -44 30 -20 62 -41 72 -47 29 -15
31 -34 10 -91 -13 -32 -17 -56 -11 -59 6 -3 10 -1 10 4 0 6 7 11 14 11 20 0
66 62 66 88 0 15 -5 19 -20 15 -22 -6 -28 12 -8 20 19 8 -10 26 -32 20 -19 -5
-32 26 -25 62 2 11 4 26 4 33 1 6 7 12 15 12 24 0 23 33 -3 73 -14 20 -28 37
-33 37 -4 0 -8 7 -8 16 0 8 -5 25 -12 37 -7 12 -12 31 -12 42 -1 11 -13 25
-29 33 -15 8 -32 25 -37 38 -6 14 -18 27 -27 31 -20 6 -73 61 -73 74 0 5 5 9
10 9 6 0 10 -6 10 -14 0 -8 7 -16 15 -20 24 -9 18 21 -7 38 -30 21 -38 20 -38
-6 -1 -22 -1 -22 -12 -4 -8 14 -7 27 6 52 17 37 45 44 67 17 8 -9 36 -33 64
-53 79 -59 209 -191 236 -240 13 -25 31 -45 39 -45 29 0 38 -46 14 -70 -15
-15 -15 -18 -2 -32 14 -14 17 -10 23 35 5 39 3 56 -9 74 -21 29 -21 84 0 96
17 9 17 6 -10 122 -5 20 -5 21 2 5 9 -19 9 -19 20 2 17 30 15 82 -3 99 -13 14
-15 14 -15 0 0 -8 -9 -20 -20 -26 -18 -10 -20 -8 -20 30 0 93 109 109 123 18
3 -18 21 -96 41 -173 26 -103 36 -161 36 -221 0 -111 28 -192 52 -150 8 15 12
16 19 5 6 -10 9 -6 9 13 0 14 5 28 11 30 6 2 11 23 12 46 1 23 5 42 9 42 4 0
4 16 1 35 -4 28 0 42 21 69 33 43 57 51 96 31 34 -17 37 -27 15 -45 -8 -7 -15
-18 -15 -24 0 -6 -9 -20 -21 -30 -16 -13 -20 -25 -15 -49 4 -23 0 -42 -14 -65
-16 -25 -19 -43 -14 -70 6 -35 5 -36 -10 -17 -15 19 -15 18 -16 -27 0 -27 -4
-48 -8 -48 -14 0 -32 -72 -22 -85 17 -21 -7 -87 -44 -120 -24 -21 -36 -41 -36
-58 0 -18 -4 -25 -13 -21 -21 8 -51 -67 -42 -106 7 -32 7 -32 19 -9 6 12 17
25 25 27 11 4 13 -3 7 -34 -21 -110 -27 -151 -41 -289 -15 -152 -10 -262 15
-353 9 -36 14 -40 50 -46 64 -10 84 -38 139 -186 27 -74 73 -200 103 -280 l53
-145 -3 -117 c-2 -101 -1 -118 13 -118 13 0 15 205 15 2000 l0 2000 -2000 0
-2000 0 0 -1270z m1247 1144 c-3 -3 -12 -4 -19 -1 -8 3 -5 6 6 6 11 1 17 -2
13 -5z m-193 -10 c9 -3 13 -10 10 -15 -3 -5 3 -9 13 -9 34 -1 -29 -28 -82 -35
-27 -4 -54 -10 -60 -14 -5 -4 -36 -17 -67 -30 -52 -21 -59 -21 -85 -7 -20 11
-23 15 -10 16 15 0 94 45 107 61 19 23 140 46 174 33z m260 -43 c4 -5 -13 -19
-37 -30 -72 -35 -104 -23 -49 18 28 21 77 28 86 12z m-544 -82 c0 -5 4 -8 9
-4 5 3 12 1 16 -4 3 -6 12 -8 20 -4 8 3 15 0 15 -5 0 -6 -14 -10 -30 -10 -19
1 -40 -8 -55 -22 -24 -22 -34 -51 -17 -49 26 4 62 -3 57 -11 -8 -13 -48 -13
-62 1 -8 8 -17 8 -31 0 -11 -6 -33 -11 -47 -11 -23 0 -26 -4 -23 -27 2 -21 -2
-29 -17 -32 -23 -4 -73 -41 -56 -41 6 0 11 -4 11 -10 0 -5 -9 -10 -20 -10 -17
0 -19 4 -14 28 3 15 13 32 21 37 9 6 35 29 58 53 24 23 50 42 59 42 9 0 16 4
16 9 0 5 9 11 20 14 11 3 22 12 25 21 3 9 7 23 10 31 5 17 35 21 35 4z m140
-49 c0 -5 -7 -10 -15 -10 -8 0 -15 5 -15 10 0 6 7 10 15 10 8 0 15 -4 15 -10z
m1051 -80 c16 0 89 -84 89 -102 0 -9 5 -20 10 -23 12 -8 13 -25 2 -25 -5 0
-17 18 -28 40 -11 24 -26 40 -36 40 -10 0 -18 6 -18 13 0 6 -14 20 -30 29 -31
18 -42 45 -14 34 9 -3 20 -6 25 -6z m-1362 -174 c-29 -26 -99 -46 -99 -28 0 6
17 14 37 18 21 4 44 13 51 21 7 7 19 13 25 13 7 0 0 -11 -14 -24z m1494 -248
c14 -23 85 -211 105 -278 25 -85 35 -139 28 -156 -7 -18 -8 -18 -26 4 -10 12
-21 18 -24 14 -6 -9 -48 -8 -63 1 -14 9 -176 -12 -183 -23 -5 -8 -9 -7 -13 4
-10 24 -37 20 -37 -6 0 -13 -4 -29 -9 -37 -11 -17 -31 -6 -31 17 0 15 -2 15
-10 2 -13 -20 -13 -72 1 -107 7 -19 7 -29 0 -31 -16 -5 -13 -22 3 -22 7 0 19
-6 25 -14 9 -11 -5 -15 -78 -26 -89 -13 -128 -9 -116 10 3 5 15 10 25 10 25 0
34 16 14 24 -12 5 -13 10 -6 19 6 7 9 22 7 32 -2 11 -4 22 -4 25 -1 3 -14 13
-29 22 -24 14 -52 16 -173 13 -87 -2 -166 -9 -199 -18 -54 -15 -88 -15 -128
-3 -19 6 -20 13 -17 76 5 77 -14 130 -45 130 -42 0 -50 10 -43 54 3 22 12 45
20 49 12 8 12 11 -1 26 -14 15 -11 21 28 61 l43 46 244 -2 c155 -1 267 -6 307
-14 70 -14 164 -9 227 14 32 11 41 19 43 43 5 40 30 63 68 63 24 0 38 -6 47
-22z m-1779 -277 c7 -11 -14 -20 -32 -13 -11 4 -11 6 0 13 17 11 26 11 32 0z
m2006 -88 c0 -5 -9 -14 -21 -21 -19 -12 -19 -11 -9 9 9 15 9 24 1 32 -6 6 -11
15 -11 21 0 5 9 0 20 -12 11 -12 20 -25 20 -29z m-2000 -8 c0 -8 -10 -25 -22
-37 -20 -20 -22 -20 -35 -3 -18 26 -16 35 7 35 11 0 20 5 20 10 0 6 7 10 15
10 8 0 15 -7 15 -15z m814 -10 c3 -8 1 -15 -4 -15 -6 0 -10 7 -10 15 0 8 2 15
4 15 2 0 6 -7 10 -15z m1196 -64 c0 -5 -7 -14 -15 -21 -13 -10 -15 -9 -15 9 0
12 6 21 15 21 8 0 15 -4 15 -9z m-2080 -11 c0 -5 -7 -10 -16 -10 -8 0 -12 5
-9 10 3 6 10 10 16 10 5 0 9 -4 9 -10z m1995 -80 c-3 -5 -11 -10 -16 -10 -6 0
-7 5 -4 10 3 6 11 10 16 10 6 0 7 -4 4 -10z m95 -55 c29 -31 54 -34 45 -5 -8
25 15 18 33 -10 11 -18 10 -20 -15 -20 -41 0 -48 -10 -49 -62 -1 -46 -25 -98
-44 -98 -9 0 -16 84 -11 134 1 11 -4 23 -10 27 -15 9 -3 59 14 59 8 0 24 -11
37 -25z m-1519 -13 c-7 -2 -18 1 -23 6 -8 8 -4 9 13 5 13 -4 18 -8 10 -11z
m659 8 c-19 -4 -55 -12 -80 -18 -25 -5 -53 -13 -62 -17 -11 -4 -18 -3 -18 4 0
6 9 11 20 11 11 0 20 4 20 9 0 10 46 17 115 18 l40 1 -35 -8z m-1242 -19 c10
-6 11 -13 1 -34 -17 -37 -29 -34 -29 8 0 36 5 41 28 26z m2025 -222 c25 -92
30 -196 13 -264 -8 -33 -15 -49 -15 -35 -1 14 -10 31 -20 37 -17 10 -23 9 -43
-12 -26 -28 -38 -31 -38 -12 0 8 -10 13 -22 13 -18 -1 -22 4 -20 21 2 14 -4
26 -17 33 -12 6 -21 17 -21 24 0 35 -74 136 -99 136 -12 0 -15 -29 -5 -54 3
-9 11 -16 17 -16 20 0 57 -43 57 -66 0 -42 -10 -54 -39 -48 -20 4 -30 1 -34
-10 -9 -23 -66 -49 -93 -42 -14 4 -30 19 -37 34 -6 15 -17 31 -24 35 -7 4 -13
14 -13 21 0 8 -7 17 -15 20 -12 4 -13 10 -6 24 8 15 3 25 -23 50 -36 34 -46
32 -46 -5 0 -40 29 -86 51 -80 17 4 19 0 19 -37 0 -40 -2 -43 -28 -43 -16 0
-43 -7 -62 -16 -62 -31 -80 22 -36 106 26 48 25 57 -8 57 -25 0 -76 -44 -76
-65 0 -14 -38 -95 -49 -105 -4 -3 -19 -31 -36 -63 -30 -57 -79 -117 -96 -117
-5 0 -9 -6 -9 -14 0 -8 -7 -17 -16 -20 -8 -3 -12 -2 -9 4 3 6 -3 10 -15 10
-17 0 -19 -3 -11 -18 8 -15 6 -19 -7 -19 -27 -1 -54 28 -41 43 6 8 7 14 0 18
-6 4 -8 13 -4 21 3 8 0 15 -7 15 -7 0 -10 7 -6 16 4 10 -1 22 -11 29 -10 7
-18 22 -18 32 0 14 -6 17 -29 15 -34 -4 -47 12 -39 50 5 25 3 28 -18 26 -20
-3 -25 3 -36 45 -14 57 -28 77 -54 77 -23 0 -24 8 -2 32 15 17 15 18 -5 18
-12 0 -22 5 -22 10 0 6 9 10 19 10 10 0 21 6 24 13 7 19 71 36 116 30 31 -4
43 -1 60 16 11 11 30 21 41 21 24 0 25 13 4 45 -18 27 -20 27 61 4 22 -6 58
-13 80 -16 22 -3 44 -9 49 -14 17 -15 72 -10 89 9 16 17 17 20 17 47 0 8 5 15
11 15 5 0 7 -5 4 -10 -10 -16 14 -40 39 -40 24 0 76 48 76 69 0 8 10 22 22 33
19 16 32 19 73 14 105 -12 100 -10 97 -44 -2 -24 3 -35 22 -47 30 -20 164 -30
186 -14 12 8 12 12 2 16 -8 3 -10 9 -4 16 5 7 12 24 16 40 7 29 33 36 54 15
17 -17 26 -3 28 45 3 67 7 58 14 -38 4 -49 14 -115 23 -146z m-1226 215 c-3
-3 -12 -4 -19 -1 -8 3 -5 6 6 6 11 1 17 -2 13 -5z m933 -14 c0 -5 -9 -10 -20
-10 -11 0 -20 5 -20 10 0 6 9 10 20 10 11 0 20 -4 20 -10z m-550 -20 c0 -5 -7
-10 -15 -10 -8 0 -15 5 -15 10 0 6 7 10 15 10 8 0 15 -4 15 -10z m-251 -30
c12 -6 40 -6 77 0 40 7 62 6 69 -1 17 -18 -25 -41 -65 -36 -36 5 -105 28 -116
40 -11 10 15 8 35 -3z m-789 -29 c0 -5 -6 -11 -12 -14 -18 -6 -39 3 -32 14 7
12 44 12 44 0z m650 -51 c13 -9 13 -11 0 -20 -19 -13 -37 -13 -45 0 -15 24 17
38 45 20z m-10 -76 c0 -15 -18 -18 -44 -8 -29 11 -18 31 14 26 17 -2 30 -10
30 -18z m-457 -81 c-7 -2 -13 -11 -13 -19 0 -9 -5 -12 -10 -9 -13 8 6 35 24
34 7 0 6 -2 -1 -6z m17 -114 c0 -11 6 -19 14 -19 7 0 19 -7 26 -15 7 -9 24
-14 37 -13 26 3 27 1 83 -112 12 -25 23 -64 24 -85 1 -38 0 -39 -37 -42 -27
-3 -44 2 -59 17 -12 11 -25 20 -29 20 -4 0 -10 17 -14 38 -4 20 -12 44 -19 52
-7 8 -18 30 -25 49 l-11 35 23 -22 c23 -22 77 -31 77 -13 0 18 -12 41 -22 41
-6 0 -32 16 -59 36 -50 37 -50 35 -40 104 2 12 31 -54 31 -71z m1660 -79 c0
-5 -2 -10 -4 -10 -3 0 -8 5 -11 10 -3 6 -1 10 4 10 6 0 11 -4 11 -10z m-579
-80 c15 0 32 -7 39 -15 7 -8 23 -15 36 -15 18 0 22 4 18 18 -5 14 -4 15 5 2 8
-11 7 -18 -5 -27 -18 -13 -3 -26 20 -17 20 8 20 1 1 -36 -19 -37 -28 -37 -49
-5 -24 37 -61 49 -91 29 -13 -8 -44 -17 -70 -18 -38 -2 -45 0 -39 13 3 9 10
30 14 46 4 17 10 38 14 48 3 9 9 25 12 35 5 14 11 11 37 -21 22 -25 40 -37 58
-37z m377 -25 c33 -37 51 -100 34 -117 -13 -13 -52 11 -52 33 0 9 -7 22 -15
29 -20 16 -46 70 -39 81 11 19 43 8 72 -26z m-249 -126 c-7 -4 -17 -5 -22 -2
-5 3 -3 9 4 14 7 4 17 5 22 2 5 -3 3 -9 -4 -14z m381 -4 c0 -14 -4 -25 -10
-25 -8 0 -8 23 -1 48 4 12 11 -3 11 -23z m40 -67 c-7 -32 -17 -61 -21 -64 -12
-7 -11 3 8 87 20 86 31 65 13 -23z m-900 18 c0 -7 -10 -16 -22 -19 -27 -7 -30
-5 -22 17 7 19 44 22 44 2z m427 8 c-3 -3 -12 -4 -19 -1 -8 3 -5 6 6 6 11 1
17 -2 13 -5z m1022 -18 c9 -11 8 -15 -5 -20 -8 -3 -17 -6 -18 -6 -1 0 -2 9 -2
20 0 23 9 26 25 6z m-1459 -51 c35 32 53 16 57 -52 4 -53 1 -65 -18 -87 -16
-18 -33 -26 -56 -26 -36 0 -36 0 -50 77 -9 48 -7 54 16 85 25 32 26 32 29 10
3 -22 5 -23 22 -7z m745 -5 c9 -15 -6 -81 -18 -77 -19 6 -30 34 -23 60 6 27
29 36 41 17z m696 -81 c-12 -12 -25 -18 -29 -14 -4 4 4 15 17 26 31 25 41 15
12 -12z m-1256 -9 c8 -13 -5 -13 -25 0 -13 8 -13 10 2 10 9 0 20 -4 23 -10z
m575 -36 c0 -14 -4 -23 -10 -19 -5 3 -10 15 -10 26 0 10 5 19 10 19 6 0 10
-12 10 -26z m1617 4 c-3 -8 -6 -5 -6 6 -1 11 2 17 5 13 3 -3 4 -12 1 -19z
m-2237 -38 c0 -19 -11 -26 -23 -14 -8 8 3 34 14 34 5 0 9 -9 9 -20z m95 10 c3
-5 1 -10 -4 -10 -6 0 -11 5 -11 10 0 6 2 10 4 10 3 0 8 -4 11 -10z m752 -54
c48 -31 52 -50 6 -31 -19 8 -45 15 -57 15 -16 0 -21 6 -21 25 0 29 17 27 72
-9z m-704 7 c-7 -2 -21 -2 -30 0 -10 3 -4 5 12 5 17 0 24 -2 18 -5z m-87 -38
c25 -26 41 -35 66 -35 18 0 54 -11 80 -25 55 -29 58 -30 58 -11 0 15 58 28 66
14 3 -4 16 -8 30 -8 29 0 30 -4 3 -41 -22 -32 -21 -33 14 -20 14 6 29 6 38 0
11 -7 9 -9 -8 -9 -13 0 -23 -4 -23 -9 0 -16 -81 -25 -90 -11 -5 8 -15 10 -26
6 -16 -6 -15 -10 11 -31 23 -18 27 -26 18 -35 -13 -14 -37 -4 -28 11 4 5 -7 9
-23 9 -16 0 -35 7 -42 15 -7 8 -21 15 -32 15 -16 0 -19 5 -14 25 5 18 2 25 -9
25 -8 0 -15 6 -15 14 0 8 -7 16 -15 20 -8 3 -15 13 -15 21 0 9 -4 13 -10 10
-5 -3 -10 -2 -10 4 0 6 -17 13 -37 17 -41 8 -63 24 -63 48 0 28 41 17 76 -19z
m204 -19 c0 -11 -19 -15 -25 -6 -3 5 1 10 9 10 9 0 16 -2 16 -4z m805 -47
c110 -23 143 -45 53 -34 -96 11 -158 28 -175 48 -17 19 -17 20 -1 14 10 -3 65
-16 123 -28z m-525 -60 c7 -11 9 -24 5 -27 -7 -7 -35 25 -35 40 0 16 19 8 30
-13z m776 -5 c41 -12 54 -20 54 -34 0 -22 -11 -19 -70 13 -71 39 -66 45 16 21z
m-1116 -74 c0 -5 -4 -10 -10 -10 -5 0 -10 5 -10 10 0 6 5 10 10 10 6 0 10 -4
10 -10z m1623 -605 c-3 -9 -8 -14 -10 -11 -3 3 -2 9 2 15 9 16 15 13 8 -4z"/>
<path d="M1134 2909 c-3 -6 -1 -16 5 -22 8 -8 11 -5 11 11 0 24 -5 28 -16 11z"/>
<path d="M1740 2320 c0 -19 3 -21 12 -12 9 9 9 15 0 24 -9 9 -12 7 -12 -12z"/>
<path d="M1635 2321 c-6 -11 9 -23 19 -14 9 9 7 23 -3 23 -6 0 -12 -4 -16 -9z"/>
<path d="M3510 2540 c0 -11 2 -20 4 -20 2 0 6 9 9 20 3 11 1 20 -4 20 -5 0 -9
-9 -9 -20z"/>
<path d="M3125 2470 c-3 -5 -1 -10 4 -10 6 0 11 5 11 10 0 6 -2 10 -4 10 -3 0
-8 -4 -11 -10z"/>
<path d="M3815 2240 c3 -5 8 -10 11 -10 2 0 4 5 4 10 0 6 -5 10 -11 10 -5 0
-7 -4 -4 -10z"/>
<path d="M3780 2222 c0 -12 19 -26 26 -19 2 2 -2 10 -11 17 -9 8 -15 8 -15 2z"/>
<path d="M3300 2050 c0 -5 5 -10 11 -10 5 0 7 5 4 10 -3 6 -8 10 -11 10 -2 0
-4 -4 -4 -10z"/>
<path d="M3416 2011 c-11 -69 16 -140 49 -127 24 9 31 37 12 48 -24 13 -21 31
3 23 11 -3 20 -2 20 3 0 6 -11 13 -24 16 -17 4 -25 15 -30 41 -9 46 -22 44
-30 -4z"/>
<path d="M3612 1995 c-6 -14 -17 -25 -24 -25 -7 0 2 -14 21 -30 42 -37 55 -38
47 -2 -4 15 -10 39 -13 55 -7 34 -16 34 -31 2z"/>
<path d="M3535 1911 c-36 -8 -24 -16 28 -20 37 -3 51 12 21 23 -9 3 -16 5 -17
5 -1 -1 -15 -4 -32 -8z"/>
<path d="M3590 1859 c0 -5 5 -7 10 -4 6 3 10 8 10 11 0 2 -4 4 -10 4 -5 0 -10
-5 -10 -11z"/>
<path d="M3411 1754 c0 -11 3 -14 6 -6 3 7 2 16 -1 19 -3 4 -6 -2 -5 -13z"/>
<path d="M3392 1705 c0 -16 2 -22 5 -12 2 9 2 23 0 30 -3 6 -5 -1 -5 -18z"/>
<path d="M2888 1560 c-12 -13 -13 -21 -5 -29 15 -15 34 -14 40 2 2 6 8 8 13 4
5 -4 2 -12 -6 -17 -11 -7 -12 -12 -4 -20 16 -16 28 4 20 35 -9 36 -39 48 -58
25z"/>
<path d="M3271 1463 c0 -25 1 -26 9 -8 12 27 12 35 0 35 -5 0 -10 -12 -9 -27z"/>
<path d="M1240 912 c-52 -49 -90 -92 -90 -103 0 -10 4 -19 9 -19 16 0 181
-161 213 -208 45 -65 41 -114 -15 -202 -23 -36 -58 -94 -77 -128 -29 -51 -40
-61 -62 -62 -31 0 -43 -28 -54 -127 l-7 -63 338 0 338 0 -7 38 c-8 54 -82 250
-110 292 -13 20 -27 51 -31 70 -4 19 -10 40 -14 45 -4 6 -8 50 -10 98 -2 67 2
95 14 113 13 20 18 22 35 12 47 -29 31 37 -30 129 -43 64 -53 75 -126 146
l-50 48 -87 2 -87 2 -90 -83z"/>
</g>
</svg>
